<svg width="24" height="24" viewBox="0 0 24 24" fill="none" xmlns="http://www.w3.org/2000/svg">
  <path d="M20 7H4C2.89543 7 2 7.89543 2 9V10C2 11.1046 2.89543 12 4 12H20C21.1046 12 22 11.1046 22 10V9C22 7.89543 21.1046 7 20 7Z" stroke="#38bdf8" stroke-width="2" stroke-linecap="round" stroke-linejoin="round"/>
  <path d="M20 12H4V19C4 20.1046 4.89543 21 6 21H18C19.1046 21 20 20.1046 20 19V12Z" stroke="#38bdf8" stroke-width="2" stroke-linecap="round" stroke-linejoin="round"/>
  <path d="M12 7V21" stroke="#38bdf8" stroke-width="2" stroke-linecap="round" stroke-linejoin="round"/>
  <path d="M12 7C12 5.93913 12.4214 4.92172 13.1716 4.17157C13.9217 3.42143 14.9391 3 16 3" stroke="#38bdf8" stroke-width="2" stroke-linecap="round" stroke-linejoin="round"/>
  <path d="M12 7C12 5.93913 11.5786 4.92172 10.8284 4.17157C10.0783 3.42143 9.06087 3 8 3" stroke="#38bdf8" stroke-width="2" stroke-linecap="round" stroke-linejoin="round"/>
</svg>
