<svg width="24" height="24" viewBox="0 0 24 24" fill="none" xmlns="http://www.w3.org/2000/svg">
  <path d="M12 2C6.48 2 2 6.48 2 12v4c0 1.1.9 2 2 2h2v-6H4v-2c0-4.42 3.58-8 8-8s8 3.58 8 8v2h-2v6h2c1.1 0 2-.9 2-2v-4c0-5.52-4.48-10-10-10z" stroke="currentColor" stroke-width="2" stroke-linecap="round" stroke-linejoin="round"/>
  <path d="M7 14v4c0 1.1-.9 2-2 2H4c-1.1 0-2-.9-2-2v-4c0-1.1.9-2 2-2h1c1.1 0 2 .9 2 2zM22 14v4c0 1.1-.9 2-2 2h-1c-1.1 0-2-.9-2-2v-4c0-1.1.9-2 2-2h1c1.1 0 2 .9 2 2z" fill="currentColor"/>
</svg>
